PERFORMER "周A健"
TITLE "最後A舞曲"
FILE "CDImage.ape" WAVE
  TRACK 01 AUDIO
    TITLE "最後A舞曲"
    PERFORMER "周A健"
    FLAGS DCP
    INDEX 00 00:00:00
    INDEX 01 00:00:01
  TRACK 02 AUDIO
    TITLE "平凡的感X"
    PERFORMER "周A健"
    FLAGS DCP
    INDEX 01 05:56:62
  TRACK 03 AUDIO
    TITLE "Y"
    PERFORMER "周A健"
    FLAGS DCP
    INDEX 01 09:49:42
  TRACK 04 AUDIO
    TITLE ""
    PERFORMER "周A健"
    FLAGS DCP
    INDEX 01 13:53:13
  TRACK 05 AUDIO
    TITLE ""
    PERFORMER "周A健"
    FLAGS DCP
    INDEX 01 17:28:03
  TRACK 06 AUDIO
    TITLE "短歌(o念已逝的s翰.{z)"
    PERFORMER "周A健"
    FLAGS DCP
    INDEX 01 21:37:49
  TRACK 07 AUDIO
    TITLE "雨中的剀"
    PERFORMER "周A健"
    FLAGS DCP
    INDEX 01 25:50:65
  TRACK 08 AUDIO
    TITLE "夜深人o"
    PERFORMER "周A健"
    FLAGS DCP
    INDEX 01 30:24:02
  TRACK 09 AUDIO
    TITLE "粞Y的中(三部曲) 沈思/入眠/@醒"
    PERFORMER "周A健"
    FLAGS DCP
    INDEX 01 34:09:54
